# xmcd CD database file
#
# Track frame offsets:
#	150
#	14802
#	28269
#	38114
#	48720
#	63432
#	73688
#	87639
#	99174
#	112928
#	128298
#	144519
#
# Disc length: 2133 seconds
#
# Revision: 0
# Processed by: cddbd v1.5.2PL0 Copyright (c) Steve Scherf et al.
# Submitted via: CDex 1.81
#
DISCID=a508530c
DTITLE=Crazy Pony - On The Mountain
DYEAR=2017
DGENRE=Country
TTITLE0=Grass Is Greener
TTITLE1=Face The Darkness
TTITLE2=Fatty Platypus
TTITLE3=Straight Ahead Bluegrass
TTITLE4=On The Mountain
TTITLE5=Nine Pound Hammer
TTITLE6=The One For Me
TTITLE7=Lazy John
TTITLE8=Moscow Nights
TTITLE9=Yes I Know
TTITLE10=Man Of Constant Sorrow
TTITLE11=End Of The Road
EXTD=YEAR: 2017
EXTT0=
EXTT1=
EXTT2=
EXTT3=
EXTT4=
EXTT5=
EXTT6=
EXTT7=
EXTT8=
EXTT9=
EXTT10=
EXTT11=
PLAYORDER=
